<?xml version="1.0" encoding="UTF-8" standalone="no"?>
<!-- Created with Inkscape (http://www.inkscape.org/) -->

<svg
   width="210mm"
   height="297mm"
   viewBox="0 0 210 297"
   version="1.1"
   id="svg5"
   inkscape:version="1.2.1 (9c6d41e410, 2022-07-14)"
   sodipodi:docname="1.svg"
   xmlns:inkscape="http://www.inkscape.org/namespaces/inkscape"
   xmlns:sodipodi="http://sodipodi.sourceforge.net/DTD/sodipodi-0.dtd"
   xmlns="http://www.w3.org/2000/svg"
   xmlns:svg="http://www.w3.org/2000/svg">
  <sodipodi:namedview
     id="namedview7"
     pagecolor="#ffffff"
     bordercolor="#000000"
     borderopacity="0.25"
     inkscape:showpageshadow="2"
     inkscape:pageopacity="0.0"
     inkscape:pagecheckerboard="0"
     inkscape:deskcolor="#d1d1d1"
     inkscape:document-units="mm"
     showgrid="false"
     inkscape:zoom="0.50333193"
     inkscape:cx="398.34548"
     inkscape:cy="721.19406"
     inkscape:window-width="1366"
     inkscape:window-height="745"
     inkscape:window-x="-8"
     inkscape:window-y="-8"
     inkscape:window-maximized="1"
     inkscape:current-layer="layer1" />
  <defs
     id="defs2" />
  <g
     inkscape:label="Слой 1"
     inkscape:groupmode="layer"
     id="layer1">
    <path
       style="fill:#ff0000;fill-opacity:0.933333;stroke-width:0.264583"
       id="path111"
       sodipodi:type="arc"
       sodipodi:cx="128.52478"
       sodipodi:cy="78.586731"
       sodipodi:rx="45.46991"
       sodipodi:ry="45.46991"
       sodipodi:start="0"
       sodipodi:end="6.2824551"
       sodipodi:arc-type="slice"
       d="M 173.99469,78.586731 A 45.46991,45.46991 0 0 1 128.53308,124.05664 45.46991,45.46991 0 0 1 83.054874,78.603332 45.46991,45.46991 0 0 1 128.49988,33.116828 a 45.46991,45.46991 0 0 1 45.4948,45.436701 l -45.4699,0.0332 z" />
    <text
       xml:space="preserve"
       style="font-size:9.87777px;text-align:center;text-anchor:middle;fill:#000000;fill-opacity:0.933333;stroke-width:0.264583"
       x="99.876106"
       y="65.182304"
       id="text275"><tspan
         sodipodi:role="line"
         id="tspan273"
         style="fill:#000000;stroke-width:0.264583"
         x="99.876106"
         y="65.182304">RADIAN</tspan></text>
    <path
       style="fill:#aa4400;fill-opacity:0.933333;stroke-width:0.264583"
       d="m 17.346902,126.68496 c -6.307964,-17.3469 3.153983,-23.12921 14.718584,-27.334518 11.564601,-4.205311 20.500884,-21.026548 25.757522,-11.038938 5.256636,9.987614 7.884955,17.346906 0.525665,18.398226 -7.359293,1.05133 -22.603542,5.7823 -20.500885,11.5646 2.102654,5.78231 7.884954,24.18054 0,23.65487 -7.884956,-0.52566 -13.141594,0.52567 -16.82124,-6.30796 -1.993737,-3.70265 -3.679646,-8.93628 -3.679646,-8.93628 z"
       id="path433"
       sodipodi:nodetypes="cssssssc" />
    <path
       style="fill:#000000;fill-opacity:0.933333;stroke-width:0.264583"
       d="M 38.373452,95.670795 50.98938,109.33805 31.539823,97.247786 Z"
       id="path489" />
    <path
       style="fill:#000000;fill-opacity:0.933333;stroke-width:0.264583"
       d="m 22.077876,118.8 c 2.102655,0 22.603539,2.62832 22.603539,2.62832 l -2.628318,5.25663 z"
       id="path491" />
    <path
       style="fill:#000000;fill-opacity:0.933333;stroke-width:0.264583"
       d="m 21.552212,105.13274 21.552212,7.35929 c 0,0 3.153981,6.30797 -1.051327,5.25664 -4.205309,-1.05133 -23.129203,-7.88495 -23.129203,-7.88495 z"
       id="path493" />
    <text
       xml:space="preserve"
       style="font-size:9.87777px;text-align:center;text-anchor:middle;fill:#ff0000;fill-opacity:0.933333;stroke-width:0.264583"
       x="80.426544"
       y="137.19823"
       id="text593"><tspan
         sodipodi:role="line"
         id="tspan591"
         style="stroke-width:0.264583"
         x="80.426544"
         y="137.19823">BUMERANG</tspan></text>
    <path
       style="fill:#008000;fill-opacity:0.933333;stroke-width:0.264583"
       d="m 47.309735,190.29026 89.362825,-23.1292 3.67965,14.71858 -93.042475,17.34691 z"
       id="path649" />
    <path
       style="fill:#00ff00;fill-opacity:0.933333;stroke-width:0.264583"
       d="m 135.09557,163.48141 c 2.10266,0 37.32213,3.67965 37.32213,3.67965 l -27.86018,18.39823 z"
       id="path705" />
    <text
       xml:space="preserve"
       style="font-size:9.87777px;text-align:center;text-anchor:middle;fill:#00ff00;fill-opacity:0.933333;stroke-width:0.264583"
       x="83.054871"
       y="161.37877"
       id="text815"><tspan
         sodipodi:role="line"
         id="tspan813"
         style="stroke-width:0.264583"
         x="83.054871"
         y="161.37877">SPREER</tspan></text>
    <rect
       style="fill:#280b0b;fill-opacity:0.933333;stroke-width:0.264583"
       id="rect919"
       width="43.104427"
       height="23.129204"
       x="130.36461"
       y="252.31857"
       ry="0.18449455" />
    <path
       style="fill:#280b0b;fill-opacity:0.933333;stroke-width:0.264583"
       id="path1025"
       sodipodi:type="arc"
       sodipodi:cx="173.46902"
       sodipodi:cy="246.79912"
       sodipodi:rx="4.2053099"
       sodipodi:ry="5.5194688"
       sodipodi:start="0"
       sodipodi:end="6.2824551"
       sodipodi:arc-type="slice"
       d="m 177.67433,246.79912 a 4.2053099,5.5194688 0 0 1 -4.20454,5.51947 4.2053099,5.5194688 0 0 1 -4.20607,-5.51746 4.2053099,5.5194688 0 0 1 4.203,-5.52148 4.2053099,5.5194688 0 0 1 4.20761,5.51544 l -4.20531,0.004 z" />
    <path
       style="fill:#280b0b;fill-opacity:0.933333;stroke-width:0.264583"
       id="path1027"
       sodipodi:type="arc"
       sodipodi:cx="179.25133"
       sodipodi:cy="235.23451"
       sodipodi:rx="4.7309732"
       sodipodi:ry="6.5707965"
       sodipodi:start="0"
       sodipodi:end="6.2824551"
       sodipodi:arc-type="slice"
       d="m 183.9823,235.23451 a 4.7309732,6.5707965 0 0 1 -4.73011,6.5708 4.7309732,6.5707965 0 0 1 -4.73184,-6.5684 4.7309732,6.5707965 0 0 1 4.72839,-6.57319 4.7309732,6.5707965 0 0 1 4.73356,6.56599 l -4.73097,0.005 z" />
    <path
       style="fill:#280b0b;fill-opacity:0.933333;stroke-width:0.264583"
       id="path1029"
       sodipodi:type="arc"
       sodipodi:cx="185.29646"
       sodipodi:cy="218.41327"
       sodipodi:rx="3.4168141"
       sodipodi:ry="8.6734514"
       sodipodi:start="0"
       sodipodi:end="6.2824551"
       sodipodi:arc-type="slice"
       d="m 188.71328,218.41327 a 3.4168141,8.6734514 0 0 1 -3.41619,8.67345 3.4168141,8.6734514 0 0 1 -3.41744,-8.67028 3.4168141,8.6734514 0 0 1 3.41494,-8.67662 3.4168141,8.6734514 0 0 1 3.41869,8.66712 l -3.41682,0.006 z" />
    <rect
       style="fill:#552200;fill-opacity:0.933333;stroke-width:0.264583"
       id="rect1033"
       width="37.847786"
       height="5.2566371"
       x="166.10974"
       y="191.3416"
       ry="0.18449455" />
    <path
       style="fill:#552200;fill-opacity:0.933333;stroke-width:0.264583"
       d="m 168.21239,196.59823 c 2.10265,1.05133 15.24425,18.39823 15.24425,18.39823 z"
       id="path1141" />
    <path
       style="fill:#552200;fill-opacity:0.933333;stroke-width:0.264583"
       d="m 168.21239,199.22655 14.19292,18.39823 2.10265,-6.83363 z"
       id="path1143" />
    <path
       style="fill:#c83737;fill-opacity:0.933333;stroke-width:0.264583"
       d="m 190.29026,211.31681 c 2.62832,-3.67964 11.5646,-15.76991 11.5646,-15.76991 l 3.67965,8.93628 z"
       id="path1145" />
    <text
       xml:space="preserve"
       style="font-size:9.87777px;text-align:center;text-anchor:middle;fill:#c83737;fill-opacity:0.933333;stroke-width:0.264583"
       x="110.38937"
       y="225.50974"
       id="text1253"><tspan
         sodipodi:role="line"
         id="tspan1251"
         style="stroke-width:0.264583"
         x="110.38937"
         y="225.50974">HAMMER</tspan></text>
    <rect
       style="fill:#800080;fill-opacity:0.933333;stroke-width:0.264583"
       id="rect1307"
       width="39.424778"
       height="6.8336282"
       x="13.667256"
       y="279.65308"
       ry="0.18449455" />
    <rect
       style="fill:#800080;fill-opacity:0.933333;stroke-width:0.264583"
       id="rect1309"
       width="6.8336282"
       height="32.591152"
       x="30.488495"
       y="248.63893"
       ry="0.18449455" />
    <rect
       style="fill:#008080;fill-opacity:0.933333;stroke-width:0.264583"
       id="rect1311"
       width="37.322124"
       height="33.642479"
       x="73.067253"
       y="248.11328"
       ry="0.18449455" />
    <rect
       style="fill:#008080;fill-opacity:0.933333;stroke-width:0.264583"
       id="rect1365"
       width="34.693806"
       height="32.065487"
       x="46.784069"
       y="213.41946"
       ry="0.18449455" />
    <text
       xml:space="preserve"
       style="font-size:9.87777px;text-align:center;text-anchor:middle;fill:#d45500;fill-opacity:0.933333;stroke-width:0.264583"
       x="63.605309"
       y="232.34335"
       id="text1421"><tspan
         sodipodi:role="line"
         id="tspan1419"
         style="stroke-width:0.264583;fill:#d45500"
         x="63.605309"
         y="232.34335">SHEMATICS</tspan></text>
  </g>
</svg>
