<?xml version="1.0" encoding="UTF-8" standalone="no"?>
<!-- Created with Inkscape (http://www.inkscape.org/) -->

<svg
   width="210mm"
   height="297mm"
   viewBox="0 0 210 297"
   version="1.1"
   id="svg3255"
   inkscape:version="1.2.1 (9c6d41e410, 2022-07-14)"
   sodipodi:docname="4.svg"
   xmlns:inkscape="http://www.inkscape.org/namespaces/inkscape"
   xmlns:sodipodi="http://sodipodi.sourceforge.net/DTD/sodipodi-0.dtd"
   xmlns="http://www.w3.org/2000/svg"
   xmlns:svg="http://www.w3.org/2000/svg">
  <sodipodi:namedview
     id="namedview3257"
     pagecolor="#ffffff"
     bordercolor="#000000"
     borderopacity="0.25"
     inkscape:showpageshadow="2"
     inkscape:pageopacity="0.0"
     inkscape:pagecheckerboard="0"
     inkscape:deskcolor="#d1d1d1"
     inkscape:document-units="mm"
     showgrid="false"
     inkscape:zoom="0.50333193"
     inkscape:cx="398.34548"
     inkscape:cy="721.19406"
     inkscape:window-width="1366"
     inkscape:window-height="745"
     inkscape:window-x="-8"
     inkscape:window-y="-8"
     inkscape:window-maximized="1"
     inkscape:current-layer="layer1" />
  <defs
     id="defs3252" />
  <g
     inkscape:label="Слой 1"
     inkscape:groupmode="layer"
     id="layer1">
    <path
       style="fill:#1a1a1a;fill-opacity:0.933333;stroke-width:0.264583"
       d="M 26.283185,113.54336 C 27.334514,94.093804 17.872566,72.015929 47.835399,85.157521 77.798228,98.299113 88.837168,107.2354 87.260175,110.91504 c -1.576991,3.67965 -60.97699,2.62832 -60.97699,2.62832 z"
       id="path3313" />
    <path
       style="fill:#1a1a1a;fill-opacity:0.933333;stroke-width:0.264583"
       d="m 109.86372,108.81239 c 21.02654,-18.923895 35.74513,-21.552215 44.68141,-14.192922 8.93628,7.359292 18.9239,18.398232 18.9239,18.398232 z"
       id="path3369" />
    <path
       style="fill:#1a1a1a;fill-opacity:0.933333;stroke-width:0.264583"
       d="m 18.923894,243.3823 57.297343,-40.47611 6.307966,8.93628 -66.759292,46.25841 z"
       id="path3371" />
    <path
       style="fill:#000000;fill-opacity:0.933333;stroke-width:0.264583"
       d="m 21.552212,256.52389 c 6.307966,0 69.387611,-47.30973 69.387611,-47.30973 l 17.346897,22.60354 -69.913268,43.63008 z"
       id="path3373" />
    <path
       style="fill:#008000;fill-opacity:0.933333;stroke-width:0.264583"
       d="m 56.77168,54.143362 -9.461945,31.539822 6.833627,2.628318 z"
       id="path3375" />
    <path
       style="fill:#008000;fill-opacity:0.933333;stroke-width:0.264583"
       d="m 52.040707,46.258405 c -13.667255,-6.833626 -22.603539,-5.782299 -25.757522,0.525664 -3.153982,6.307965 4.20531,13.667258 10.513276,15.244249 6.307963,1.576991 9.987608,-6.833629 13.141592,-7.359293 3.153981,-0.525663 2.102654,-8.41062 2.102654,-8.41062 z"
       id="path3377" />
    <path
       style="fill:#008000;fill-opacity:0.933333;stroke-width:0.264583"
       d="m 60.451327,50.463717 c 15.244247,-3.679648 26.283184,1.051327 26.283184,11.564601 0,10.513274 -12.090265,12.615928 -15.244246,12.615928 -3.153982,0 -11.564601,-12.615928 -11.564601,-12.615928 z"
       id="path3379" />
    <path
       style="fill:#008000;fill-opacity:0.933333;stroke-width:0.264583"
       d="m 50.463717,37.322125 c 3.153981,-13.141594 9.461947,-22.603541 14.718582,-14.192922 5.256639,8.41062 9.461947,18.39823 9.461947,18.39823 z"
       id="path3381" />
    <path
       style="fill:#00ff00;fill-opacity:0.933333;stroke-width:0.264583"
       d="m 145.60885,37.322125 c -6.30797,4.730972 2.10265,11.038937 -7.88496,14.192919 -9.98761,3.153981 -12.61593,1.57699 -12.09026,7.359292 0.52566,5.7823 1.57699,11.038938 8.93628,8.936284 7.35929,-2.102657 19.44956,-4.730975 19.44956,-9.987611 0,-5.256638 1.05132,-18.39823 0,-21.552214 -1.05133,-3.153982 -8.41062,1.05133 -8.41062,1.05133 z"
       id="path3383" />
    <path
       style="fill:#00ff00;fill-opacity:0.933333;stroke-width:0.264583"
       d="m 167.16106,27.860178 -16.29558,64.656635 7.3593,8.410617 z"
       id="path3385" />
    <path
       style="fill:#008000;fill-opacity:0.933333;stroke-width:0.264583"
       d="M 165.05841,21.552212 C 142.45487,17.346903 121.42832,6.3079645 124.5823,13.667256 c 3.15398,7.359292 6.30796,10.513275 14.71858,11.564602 8.41062,1.051327 25.75753,-3.679646 25.75753,-3.679646 z"
       id="path3387" />
    <path
       style="fill:#ffff00;fill-opacity:0.933333;stroke-width:1.98676"
       d="m 592.02237,363.53479 c -4.55068,-4.75658 -14.39126,-11.9349 -20.18129,-14.72145 -0.19026,-0.0916 12.03908,-48.88514 27.17631,-108.43013 15.13724,-59.545 27.58599,-106.9425 27.6639,-105.32778 0.14391,2.9827 -27.40437,230.17856 -28.26281,233.08873 -0.25745,0.87278 -3.1357,-1.20146 -6.39611,-4.60937 z"
       id="path3458"
       transform="scale(0.26458333)" />
    <path
       style="fill:#ffff00;fill-opacity:0.933333;stroke-width:0.264583"
       d="m 154.01947,188.71327 c -4.73098,-4.73097 -19.44956,-16.29557 -24.18053,-9.46195 -4.73098,6.83363 -15.76991,14.71859 -8.41062,16.82124 7.35929,2.10266 29.43716,6.30797 29.43716,6.30797 z"
       id="path3529" />
    <path
       style="fill:#ffff00;fill-opacity:0.933333;stroke-width:0.264583"
       d="m 155.59646,178.72566 c -2.62832,-14.71858 11.03894,-21.02655 12.61593,-15.76991 1.57699,5.25664 14.19292,15.76991 14.19292,21.55221 0,5.7823 -2.10266,7.35929 -11.03894,7.35929 -8.93628,0 -20.50089,-6.30796 -20.50089,-6.30796 z"
       id="path3531" />
    <path
       style="fill:#ffff00;fill-opacity:0.933333;stroke-width:0.264583"
       d="m 167.16106,200.27787 c 7.88496,-5.25663 22.07788,-16.29557 22.07788,-9.46194 0,6.83363 5.25663,15.24424 1.05132,20.50088 -4.20531,5.25664 -16.82123,11.5646 -21.55221,8.41062 -4.73097,-3.15398 -1.57699,-19.44956 -1.57699,-19.44956 z"
       id="path3533" />
    <path
       style="fill:#ffff00;fill-opacity:0.933333;stroke-width:0.264583"
       d="m 140.87788,209.73982 c 5.25663,-3.15398 13.14159,-10.51327 18.39822,-6.30796 5.25664,4.20531 3.67965,9.98761 2.10266,14.19292 -1.57699,4.2053 -21.55221,10.51327 -23.1292,6.83363 -1.577,-3.67965 2.62832,-14.71859 2.62832,-14.71859 z"
       id="path3535" />
    <path
       style="fill:#ff7f2a;fill-opacity:0.933333;stroke-width:0.264583"
       id="path3589"
       sodipodi:type="arc"
       sodipodi:cx="162.95575"
       sodipodi:cy="197.64957"
       sodipodi:rx="12.615929"
       sodipodi:ry="10.513274"
       sodipodi:start="0"
       sodipodi:end="6.2824551"
       sodipodi:arc-type="slice"
       d="m 175.57168,197.64957 a 12.615929,10.513274 0 0 1 -12.61363,10.51327 12.615929,10.513274 0 0 1 -12.61823,-10.50943 12.615929,10.513274 0 0 1 12.60902,-10.51712 12.615929,10.513274 0 0 1 12.62283,10.5056 l -12.61592,0.008 z" />
    <path
       style="fill:#008000;fill-opacity:0.933333;stroke-width:0.264583"
       d="m 164.53274,215.52212 c 0,0 -3.15398,28.38584 -6.30796,32.06549 -3.15399,3.67964 -10.51328,16.29557 -10.51328,16.29557 l 17.87257,2.62833 z"
       id="path3697" />
    <path
       style="fill:#008000;fill-opacity:0.933333;stroke-width:0.264583"
       d="m 37.847788,152.44248 c -5.782302,-5.25664 -21.026549,-2.10266 -19.449558,2.10265 1.576991,4.20531 -2.628319,12.61593 3.679646,13.66726 6.307965,1.05132 15.244249,-1.05133 15.244249,-3.67965 0,-2.62832 0.525663,-12.09026 0.525663,-12.09026 z"
       id="path3699" />
    <path
       style="fill:#008000;fill-opacity:0.933333;stroke-width:0.264583"
       d="m 39.424779,146.66017 c 1.576991,-7.88495 -1.051327,-15.76991 8.41062,-7.88495 9.461944,7.88495 13.667255,11.5646 12.090265,19.97522 -1.576991,8.41062 -6.83363,10.51327 -9.987611,9.98761 -3.153984,-0.52566 -9.461947,-3.15398 -9.461947,-5.7823 0,-2.62832 -1.051327,-16.29558 -1.051327,-16.29558 z"
       id="path3701" />
    <path
       style="fill:#800080;fill-opacity:0.933333;stroke-width:1.98676"
       d="m 81.076314,633.88866 c -8.772659,-3.79783 -10.420795,-9.41984 -9.942216,-33.91421 l 0.445875,-22.82052 9.854813,-4.89595 c 13.677372,-6.79502 39.532394,-6.95722 52.311604,-0.32817 l 8.58047,4.45102 -1.3841,23.23429 c -0.76126,12.77887 -1.83221,24.00614 -2.3799,24.9495 -0.54768,0.94336 -5.08633,3.52464 -10.08587,5.73618 -10.18917,4.50715 -40.055322,6.76779 -47.400676,3.58786 z"
       id="path3703"
       transform="scale(0.26458333)" />
    <path
       style="fill:#800080;fill-opacity:0.933333;stroke-width:1.98676"
       d="m 182.78197,634.9644 c -13.18404,-4.18051 -24.88529,-11.02169 -26.80687,-15.67273 -3.47012,-8.39922 -6.06549,-62.90076 -3.94419,-82.82642 2.37408,-22.30007 4.55963,-25.71216 13.5061,-21.08577 15.7163,8.12722 49.37707,39.91627 56.10341,52.98376 11.11217,21.58803 1.0898,56.57097 -18.7943,65.60124 -9.47084,4.30114 -9.62835,4.30899 -20.06415,0.99992 z"
       id="path3774"
       transform="scale(0.26458333)" />
    <path
       style="fill:#008000;fill-opacity:0.933333;stroke-width:0.264583"
       d="m 36.796461,157.69911 -8.936283,43.10443 12.090264,-5.25664 z"
       id="path3830" />
    <path
       style="fill:#008000;fill-opacity:0.933333;stroke-width:0.264583"
       d="m 44.155751,174.52035 c 10.513274,-4.73097 17.872567,-17.87256 21.026548,-9.98761 3.153984,7.88496 13.141595,15.76991 3.153984,17.87257 -9.98761,2.10265 -18.39823,9.98761 -22.603541,3.15398 -4.205309,-6.83363 -1.576991,-11.03894 -1.576991,-11.03894 z"
       id="path3832" />
    <path
       style="fill:#008000;fill-opacity:0.933333;stroke-width:0.264583"
       d="m 171.36637,251.26725 c 13.14159,-25.23185 14.19292,-32.59115 18.92389,-26.80884 4.73098,5.78229 13.66726,12.61592 5.7823,18.39822 -7.88495,5.78231 -22.60353,11.03894 -24.70619,8.41062 z"
       id="path3834" />
    <text
       xml:space="preserve"
       style="font-size:9.87777px;text-align:center;text-anchor:middle;fill:#ff0000;fill-opacity:0.933333;stroke-width:0.264583"
       x="64.130974"
       y="127.21062"
       id="text3942"><tspan
         sodipodi:role="line"
         id="tspan3940"
         style="stroke-width:0.264583"
         x="64.130974"
         y="127.21062">VASILIY EYES</tspan></text>
    <text
       xml:space="preserve"
       style="font-size:9.87777px;text-align:center;text-anchor:middle;fill:#ff0000;fill-opacity:0.933333;stroke-width:0.264583"
       x="125.10796"
       y="152.44247"
       id="text3946"><tspan
         sodipodi:role="line"
         id="tspan3944"
         style="stroke-width:0.264583"
         x="125.10796"
         y="152.44247">CLEAR BODY</tspan></text>
    <text
       xml:space="preserve"
       style="font-size:9.87777px;text-align:center;text-anchor:middle;fill:#ff0000;fill-opacity:0.933333;stroke-width:0.264583"
       x="78.849556"
       y="267.56284"
       id="text3950"><tspan
         sodipodi:role="line"
         id="tspan3948"
         style="stroke-width:0.264583"
         x="78.849556"
         y="267.56284">ICE</tspan></text>
    <text
       xml:space="preserve"
       style="font-size:9.87777px;text-align:center;text-anchor:middle;fill:#ff0000;fill-opacity:0.933333;stroke-width:0.264583"
       x="36.796459"
       y="17.872566"
       id="text3954"><tspan
         sodipodi:role="line"
         id="tspan3952"
         style="stroke-width:0.264583"
         x="36.796459"
         y="17.872566">POTATTO</tspan></text>
    <text
       xml:space="preserve"
       style="font-size:9.87777px;text-align:center;text-anchor:middle;fill:#ff0000;fill-opacity:0.933333;stroke-width:0.264583"
       x="137.19823"
       y="119.32566"
       id="text4008"><tspan
         sodipodi:role="line"
         id="tspan4006"
         style="stroke-width:0.264583"
         x="137.19823"
         y="119.32566">QUCOMBA</tspan></text>
  </g>
</svg>
